<svg width="35" height="25" viewBox="0 0 35 25" fill="none" xmlns="http://www.w3.org/2000/svg">
<path fill-rule="evenodd" clip-rule="evenodd" d="M1.08705 0.968562C0.804824 1.12001 0.441957 1.46734 0.280682 1.74048C-0.00404001 2.22254 -0.0119571 2.48322 0.00548987 10.6752C0.0216173 18.2028 0.0496204 19.1638 0.265142 19.5806C0.651907 20.3287 1.13925 20.5547 2.54204 20.637L3.7925 20.7103L3.90334 21.3635C4.06447 22.3125 4.7147 23.2683 5.55113 23.7854C6.1864 24.178 6.39782 24.229 7.39141 24.229C8.38501 24.229 8.59643 24.178 9.2317 23.7854C10.0677 23.2684 10.7179 22.3131 10.8801 21.3635L10.9915 20.7103H18.0942H25.1968L25.3083 21.3635C25.5833 22.974 26.9244 24.1705 28.5723 24.2755C30.4814 24.397 32.0498 23.1461 32.3073 21.2967C32.387 20.7242 32.4049 20.7084 33.0613 20.6329C33.4312 20.5904 33.9081 20.4413 34.1213 20.3017C34.9013 19.7906 34.9391 19.557 34.9853 14.9747C35.023 11.2351 34.9992 10.6893 34.7822 10.3008C34.5173 9.82633 31.4522 6.1028 30.5944 5.2133C29.8816 4.47408 29.2431 4.36295 25.7109 4.36295H22.7858V3.32932C22.7858 2.20949 22.6068 1.72171 21.9816 1.13746L21.5894 0.770928L11.5948 0.732076C2.05529 0.694983 1.57689 0.705832 1.08705 0.968562ZM21.2529 2.23046L21.6129 2.59025V8.16829V13.7462H11.4233H1.23367V8.12958C1.23367 2.34086 1.24935 2.17621 1.82012 1.97228C1.94107 1.92902 6.28199 1.88841 11.4665 1.88211L20.8932 1.87053L21.2529 2.23046ZM29.7816 6.15896C30.5233 6.93469 33.6351 10.7182 33.6351 10.8444C33.6351 10.9082 31.194 10.9605 28.2105 10.9605H22.7858V8.3215V5.68246H26.0558H29.3259L29.7816 6.15896ZM33.7818 13.0809V13.8818L32.4256 13.9239C31.1357 13.964 31.0671 13.9827 31.0215 14.304C30.9338 14.9226 31.2217 15.0657 32.5534 15.0657H33.7818V16.9717C33.7818 18.6822 33.7517 18.9077 33.4885 19.1709C33.3079 19.3515 32.9999 19.4641 32.686 19.4641C32.2791 19.4641 32.134 19.3829 31.9654 19.0609C31.6984 18.5513 30.9087 17.8035 30.3364 17.5185C28.7434 16.7254 26.6995 17.363 25.7117 18.9612L25.4009 19.4641H24.0933H22.7858V15.8721V12.2801H28.2838H33.7818V13.0809ZM25.376 13.5507C25.3222 13.6044 25.2782 14.0332 25.2782 14.5037V15.3589H25.938H26.5977V14.4059V13.453H26.0358C25.7265 13.453 25.4297 13.4969 25.376 13.5507ZM21.6129 17.2649V19.4641H16.2246H10.8362L10.3234 18.7727C9.67447 17.898 9.04462 17.4744 8.06715 17.2557C6.66553 16.9419 5.1214 17.6421 4.30624 18.9612C3.99747 19.4609 3.98838 19.4641 2.90769 19.4641C1.62483 19.4641 1.23367 19.2088 1.23367 18.3718V17.866L2.06144 17.822C2.98892 17.7728 3.34592 17.4791 3.05035 17.0083C2.93452 16.8237 2.65713 16.7394 2.06144 16.7078L1.23367 16.6638V15.8647V15.0657H11.4233H21.6129V17.2649ZM8.31933 18.6378C8.5825 18.7477 8.97366 19.0465 9.18845 19.3018C10.2405 20.5521 9.59589 22.5471 8.00103 22.9765C6.77549 23.3065 5.55069 22.6242 5.1865 21.4088C4.62101 19.5213 6.48593 17.8717 8.31933 18.6378ZM29.9713 18.7677C30.6978 19.2621 31.0303 19.8007 31.096 20.5895C31.2087 21.9402 30.1779 23.0392 28.7981 23.0392C26.8807 23.0392 25.7817 20.7497 27.0025 19.2987C27.7532 18.4066 29.0896 18.1676 29.9713 18.7677Z" fill="#E30611"/>
</svg>
