<svg xmlns="http://www.w3.org/2000/svg" xmlns:xlink="http://www.w3.org/1999/xlink"><symbol id="icon-car" viewBox="0 0 35 25">
<path fill-rule="evenodd" clip-rule="evenodd" d="M1.08705 0.968562C0.804824 1.12001 0.441957 1.46734 0.280682 1.74048C-0.00404001 2.22254 -0.0119571 2.48322 0.00548987 10.6752C0.0216173 18.2028 0.0496204 19.1638 0.265142 19.5806C0.651907 20.3287 1.13925 20.5547 2.54204 20.637L3.7925 20.7103L3.90334 21.3635C4.06447 22.3125 4.7147 23.2683 5.55113 23.7854C6.1864 24.178 6.39782 24.229 7.39141 24.229C8.38501 24.229 8.59643 24.178 9.2317 23.7854C10.0677 23.2684 10.7179 22.3131 10.8801 21.3635L10.9915 20.7103H18.0942H25.1968L25.3083 21.3635C25.5833 22.974 26.9244 24.1705 28.5723 24.2755C30.4814 24.397 32.0498 23.1461 32.3073 21.2967C32.387 20.7242 32.4049 20.7084 33.0613 20.6329C33.4312 20.5904 33.9081 20.4413 34.1213 20.3017C34.9013 19.7906 34.9391 19.557 34.9853 14.9747C35.023 11.2351 34.9992 10.6893 34.7822 10.3008C34.5173 9.82633 31.4522 6.1028 30.5944 5.2133C29.8816 4.47408 29.2431 4.36295 25.7109 4.36295H22.7858V3.32932C22.7858 2.20949 22.6068 1.72171 21.9816 1.13746L21.5894 0.770928L11.5948 0.732076C2.05529 0.694983 1.57689 0.705832 1.08705 0.968562ZM21.2529 2.23046L21.6129 2.59025V8.16829V13.7462H11.4233H1.23367V8.12958C1.23367 2.34086 1.24935 2.17621 1.82012 1.97228C1.94107 1.92902 6.28199 1.88841 11.4665 1.88211L20.8932 1.87053L21.2529 2.23046ZM29.7816 6.15896C30.5233 6.93469 33.6351 10.7182 33.6351 10.8444C33.6351 10.9082 31.194 10.9605 28.2105 10.9605H22.7858V8.3215V5.68246H26.0558H29.3259L29.7816 6.15896ZM33.7818 13.0809V13.8818L32.4256 13.9239C31.1357 13.964 31.0671 13.9827 31.0215 14.304C30.9338 14.9226 31.2217 15.0657 32.5534 15.0657H33.7818V16.9717C33.7818 18.6822 33.7517 18.9077 33.4885 19.1709C33.3079 19.3515 32.9999 19.4641 32.686 19.4641C32.2791 19.4641 32.134 19.3829 31.9654 19.0609C31.6984 18.5513 30.9087 17.8035 30.3364 17.5185C28.7434 16.7254 26.6995 17.363 25.7117 18.9612L25.4009 19.4641H24.0933H22.7858V15.8721V12.2801H28.2838H33.7818V13.0809ZM25.376 13.5507C25.3222 13.6044 25.2782 14.0332 25.2782 14.5037V15.3589H25.938H26.5977V14.4059V13.453H26.0358C25.7265 13.453 25.4297 13.4969 25.376 13.5507ZM21.6129 17.2649V19.4641H16.2246H10.8362L10.3234 18.7727C9.67447 17.898 9.04462 17.4744 8.06715 17.2557C6.66553 16.9419 5.1214 17.6421 4.30624 18.9612C3.99747 19.4609 3.98838 19.4641 2.90769 19.4641C1.62483 19.4641 1.23367 19.2088 1.23367 18.3718V17.866L2.06144 17.822C2.98892 17.7728 3.34592 17.4791 3.05035 17.0083C2.93452 16.8237 2.65713 16.7394 2.06144 16.7078L1.23367 16.6638V15.8647V15.0657H11.4233H21.6129V17.2649ZM8.31933 18.6378C8.5825 18.7477 8.97366 19.0465 9.18845 19.3018C10.2405 20.5521 9.59589 22.5471 8.00103 22.9765C6.77549 23.3065 5.55069 22.6242 5.1865 21.4088C4.62101 19.5213 6.48593 17.8717 8.31933 18.6378ZM29.9713 18.7677C30.6978 19.2621 31.0303 19.8007 31.096 20.5895C31.2087 21.9402 30.1779 23.0392 28.7981 23.0392C26.8807 23.0392 25.7817 20.7497 27.0025 19.2987C27.7532 18.4066 29.0896 18.1676 29.9713 18.7677Z" fill="#E30611"/>
</symbol><symbol id="icon-circle" viewBox="0 0 29 29">
<path d="M28.0487 9.36529C27.8673 8.91183 27.3685 8.63978 26.8697 8.82116C26.4162 9.00254 26.1441 9.50134 26.3255 10.0001C27.5045 13.1744 27.4138 16.6206 26.0081 19.7042C24.6024 22.7877 22.1084 25.1457 18.9342 26.3246C15.7599 27.5036 12.3137 27.413 9.23015 26.0072C8.14185 25.5084 7.14423 24.8736 6.23732 24.1027C6.96285 24.1027 7.77908 24.1027 8.59531 23.9214C9.09411 23.8307 9.41153 23.3772 9.32084 22.8784C9.23014 22.3796 8.77668 22.0622 8.27788 22.1529C6.64543 22.4249 5.05833 22.1982 4.15141 22.0168C3.83399 21.8808 3.47122 21.9261 3.19915 22.1075C3.10846 22.1982 3.01776 22.2889 2.97242 22.4249V22.4702C2.97242 22.5156 2.92708 22.561 2.92708 22.6063C2.88173 22.7877 2.88173 22.9691 2.92708 23.1504C3.15381 23.9213 3.69795 26.1433 3.47122 27.5036C3.38053 28.0024 3.7433 28.4559 4.2421 28.5466C4.28745 28.5466 4.3328 28.5466 4.37814 28.5466C4.8316 28.5466 5.19437 28.2292 5.28506 27.7757C5.37575 27.0956 5.37575 26.37 5.28506 25.6445C6.28267 26.4607 7.37096 27.1409 8.50461 27.685C10.4091 28.5466 12.4497 29.0001 14.4903 29.0001C16.2134 29.0001 17.9365 28.6827 19.6143 28.0478C23.242 26.6874 26.0988 23.9667 27.7313 20.475C29.273 16.938 29.409 12.993 28.0487 9.36529Z" fill="#E30611"/>
<path d="M2.92705 9.2746C5.82919 2.88084 13.3566 0.0693975 19.705 2.92619C20.748 3.42499 21.7456 4.01449 22.6071 4.74002C21.8816 4.74002 21.0654 4.74003 20.2945 4.92141C19.7957 5.01211 19.4783 5.46553 19.569 5.96434C19.6597 6.46314 20.1131 6.7806 20.6119 6.68991C22.3804 6.37249 24.0582 6.64452 24.9198 6.87125H24.9651C25.0105 6.87125 25.0558 6.87125 25.1012 6.87125H25.1465C25.1465 6.87125 25.1465 6.87125 25.1919 6.87125C25.2372 6.87125 25.2825 6.87125 25.2825 6.87125C25.3279 6.87125 25.3279 6.87125 25.3732 6.87125C25.4186 6.87125 25.4639 6.87126 25.4639 6.82592C25.4639 6.82592 25.5093 6.82593 25.5093 6.78058C25.5546 6.78058 25.5546 6.73525 25.6 6.73525C25.6453 6.73525 25.6453 6.68991 25.6907 6.68991C25.6907 6.68991 25.6907 6.68991 25.736 6.68991L25.7814 6.64452L25.8267 6.59919C25.8721 6.55384 25.9174 6.46314 25.9627 6.41779C26.0081 6.37245 26.0081 6.2818 26.0081 6.23645V6.19106C26.0081 6.14572 26.0081 6.10042 26.0081 6.00973V5.96434C26.0081 5.87364 26.0081 5.8283 25.9627 5.73761C25.736 5.01207 25.1919 2.74479 25.4186 1.38442C25.5093 0.885612 25.1465 0.432186 24.6477 0.341495C24.1489 0.250803 23.6954 0.613548 23.6048 1.11235C23.5141 1.79254 23.5141 2.51805 23.6048 3.24358C22.6525 2.47271 21.6095 1.8379 20.4759 1.29375C13.1752 -2.0165 4.5595 1.2484 1.2946 8.54908C-0.292505 12.0861 -0.428544 16.0311 0.931831 19.6588C1.06787 20.0216 1.43064 20.2483 1.79341 20.2483C1.8841 20.2483 2.02013 20.2483 2.11083 20.2029C2.56428 20.0216 2.83636 19.5228 2.65497 19.024C1.43064 15.8044 1.52133 12.3581 2.92705 9.2746Z" fill="#E30611"/>
<path d="M11.4067 24.9643C12.4044 25.2364 13.402 25.4177 14.4449 25.4177C18.6621 25.4177 22.6525 22.9691 24.421 18.9786C25.6453 16.3032 25.736 13.3557 24.6931 10.635C24.557 10.3176 24.2396 10.1815 23.9222 10.2722C23.6048 10.4082 23.4687 10.7257 23.5594 11.0431C24.4663 13.4918 24.3757 16.1219 23.3327 18.4799C21.3375 22.8784 16.3948 25.1457 11.7695 23.8306C11.4521 23.7399 11.0893 23.9213 10.9986 24.2388C10.9079 24.5562 11.0893 24.8736 11.4067 24.9643Z" fill="#E30611"/>
<path d="M17.0296 5.1028C17.347 5.19349 17.6645 5.01209 17.7552 4.69467C17.8459 4.37725 17.6645 4.05984 17.347 3.96915C12.1323 2.56343 6.73612 5.10276 4.51418 10.0001C3.28984 12.6755 3.19914 15.623 4.2421 18.3438C4.33279 18.5705 4.55952 18.7519 4.8316 18.7519C4.92229 18.7519 4.96763 18.7519 5.05832 18.7066C5.37575 18.5705 5.51178 18.2531 5.42109 17.9356C4.51418 15.487 4.60487 12.8569 5.64782 10.4989C7.59769 6.10036 12.4044 3.83311 17.0296 5.1028Z" fill="#E30611"/>
</symbol><symbol id="icon-label" viewBox="0 0 30 29">
<path d="M12.6903 29.0001C11.7633 29.0001 10.9688 28.3821 10.0419 27.4993L1.52283 18.9803C-0.50761 16.9498 -0.50761 15.7139 1.52283 13.7276L14.9855 0.264917C15.1621 0.0883572 15.4269 6.10352e-05 15.6918 6.10352e-05L27.124 1.14772C27.1682 1.14772 27.2123 1.14772 27.2123 1.14772C27.6096 1.236 27.9186 1.5891 27.9186 1.98636L29.0221 13.3304C29.0662 13.5952 28.9338 13.86 28.7572 14.0366L15.3387 27.4552C14.4117 28.3821 13.6172 29.0001 12.6903 29.0001ZM15.9566 1.76566L2.80288 14.9194C1.47867 16.2436 1.47867 16.376 2.80288 17.7002L11.3219 26.2192C11.7633 26.6606 12.3371 27.1903 12.6903 27.1903C13.0434 27.1903 13.6613 26.6165 14.0586 26.2192L27.2123 13.0655L26.1971 2.78088L15.9566 1.76566Z" fill="#E30611"/>
<path d="M5.40719 17.7003C5.27477 17.7003 5.18648 17.6561 5.0982 17.5678C3.95056 16.4202 4.21539 15.7139 5.23062 14.6987L9.24737 10.682C9.42393 10.5054 9.68876 10.5054 9.86532 10.682C10.0419 10.8585 10.0419 11.1234 9.86532 11.3L5.84859 15.3167C5.05407 16.1112 5.00993 16.2436 5.71617 16.9499C5.89273 17.1264 5.89273 17.3913 5.71617 17.5678C5.67203 17.6561 5.53961 17.7003 5.40719 17.7003Z" fill="#E30611"/>
<path d="M10.4833 10.5936C10.3509 10.5936 10.2626 10.5495 10.1743 10.4612C9.99773 10.2847 9.99773 10.0198 10.1743 9.84326L10.5274 9.49015C10.704 9.31359 10.9688 9.31359 11.1454 9.49015C11.3219 9.66671 11.3219 9.93156 11.1454 10.1081L10.7923 10.4612C10.704 10.5495 10.5716 10.5936 10.4833 10.5936Z" fill="#E30611"/>
<path d="M20.9886 11.5648C18.9581 11.5648 17.325 9.93161 17.325 7.90117C17.325 5.87072 18.9581 4.23755 20.9886 4.23755C23.019 4.23755 24.6522 5.87072 24.6522 7.90117C24.6522 9.93161 23.019 11.5648 20.9886 11.5648ZM20.9886 6.00315C19.9292 6.00315 19.0906 6.8418 19.0906 7.90117C19.0906 8.96053 19.9292 9.79918 20.9886 9.79918C22.0479 9.79918 22.8866 8.96053 22.8866 7.90117C22.8866 6.8418 22.0038 6.00315 20.9886 6.00315Z" fill="#E30611"/>
</symbol><symbol id="icon-shield" viewBox="0 0 25 29">
<path d="M11.903 29.0001C11.8164 29.0001 11.8597 29 11.7731 28.9568C11.297 28.8269 0 25.3209 0 18.006V5.62693C0 5.15081 0.2597 4.76126 0.73582 4.76126C2.9 4.76126 4.58806 2.98663 4.63134 0.865733C4.63134 0.389613 4.97761 6.10352e-05 5.45373 6.10352e-05H18.309C18.7851 6.10352e-05 19.1746 0.389613 19.1746 0.865733C19.2179 3.02991 21.1224 4.76126 23.2433 4.76126C23.7194 4.76126 24.2388 5.15081 24.2388 5.62693V18.006C24.2388 24.412 12.8119 28.7836 12.2925 28.9568C12.206 29 11.9895 29.0001 11.903 29.0001ZM1.73134 6.40603V18.006C1.73134 23.503 10.4313 26.6627 12.1194 27.2254C15.2791 25.9702 22.5075 22.2045 22.5075 18.006V6.40603C19.9104 6.01647 17.9194 4.28512 17.5298 1.6881H6.27612C5.84328 4.3284 3.89552 6.05976 1.73134 6.40603Z" fill="#E30611"/>
<path d="M7.61791 23.6762C7.53134 23.6762 7.48806 23.6762 7.44478 23.6329C5.8 22.8105 4.50149 21.5986 3.72239 20.2135C3.59254 19.9971 3.6791 19.7374 3.89552 19.6075C4.11194 19.4777 4.37164 19.5642 4.50149 19.7806C5.19403 21.0359 6.36269 22.118 7.83433 22.8538C8.05074 22.9404 8.13731 23.2001 8.00746 23.4165C7.92089 23.5896 7.79104 23.6762 7.61791 23.6762Z" fill="#E30611"/>
<path d="M3.33279 18.612C3.15966 18.612 2.98652 18.4822 2.89995 18.309C2.81339 18.0493 2.7701 17.8762 2.7701 17.8762C2.72682 17.6598 2.89995 17.4001 3.11637 17.3568C3.33279 17.3135 3.59249 17.4866 3.63578 17.703C3.63578 17.703 3.67906 17.8329 3.72234 18.0493C3.80891 18.2657 3.63578 18.5254 3.41936 18.5687C3.41936 18.612 3.37607 18.612 3.33279 18.612Z" fill="#E30611"/>
<path d="M12.1195 28.1344C11.8598 28.1344 11.6866 27.9613 11.6866 27.7016V0.865758C11.6866 0.606057 11.8598 0.432922 12.1195 0.432922C12.3792 0.432922 12.5523 0.606057 12.5523 0.865758V27.7016C12.5523 27.918 12.3359 28.1344 12.1195 28.1344Z" fill="#E30611"/>
<path d="M23.1134 14.9329H0.605932C0.34623 14.9329 0.173096 14.7597 0.173096 14.5C0.173096 14.2403 0.34623 14.0672 0.605932 14.0672H23.1134C23.3731 14.0672 23.5462 14.2403 23.5462 14.5C23.5462 14.7165 23.3731 14.9329 23.1134 14.9329Z" fill="#E30611"/>
</symbol><symbol id="icon-socket" viewBox="0 0 29 29">
<path fill-rule="evenodd" clip-rule="evenodd" d="M5.43766 6.10352e-05C2.43507 6.10352e-05 0 2.43458 0 5.43772V23.5624C0 26.565 2.43452 29.0001 5.43766 29.0001H23.5623C26.5649 29.0001 29 26.5655 29 23.5624V5.43772C29 2.43513 26.5655 6.10352e-05 23.5623 6.10352e-05H5.43766ZM1.8125 23.5624V5.43771C1.8125 3.43581 3.43587 1.81255 5.43766 1.81255H23.5623C25.5642 1.81255 27.1875 3.43592 27.1875 5.43771V23.5624C27.1875 25.5643 25.5641 27.1875 23.5623 27.1875H5.43766C3.43576 27.1875 1.8125 25.5642 1.8125 23.5624ZM3.62502 8.15811C3.62502 5.65458 5.65168 3.62507 8.15806 3.62507H20.842C23.3455 3.62507 25.375 5.65173 25.375 8.15811V20.842C25.375 23.3456 23.3484 25.3751 20.842 25.3751H8.15806C5.65453 25.3751 3.62502 23.3484 3.62502 20.842V8.15811ZM4.53125 20.842V8.15809C4.53125 6.15399 6.15324 4.5313 8.15804 4.5313H20.842C22.8461 4.5313 24.4687 6.15329 24.4687 8.15809V20.842C24.4687 22.8461 22.8468 24.4688 20.842 24.4688H8.15804C6.15394 24.4688 4.53125 22.8468 4.53125 20.842ZM14.5 22.6563C9.99545 22.6563 6.34377 19.0046 6.34377 14.5001C6.34377 9.9955 9.99545 6.34382 14.5 6.34382C19.0046 6.34382 22.6563 9.9955 22.6563 14.5001C22.6563 19.0046 19.0046 22.6563 14.5 22.6563ZM21.75 14.5C21.75 18.5041 18.5041 21.75 14.5 21.75C10.4959 21.75 7.25 18.5041 7.25 14.5C7.25 10.496 10.4959 7.25005 14.5 7.25005C18.5041 7.25005 21.75 10.496 21.75 14.5ZM11.7812 16.3125C10.7802 16.3125 9.96875 15.5011 9.96875 14.5C9.96875 13.499 10.7802 12.6875 11.7812 12.6875C12.7823 12.6875 13.5937 13.499 13.5937 14.5C13.5937 15.5011 12.7823 16.3125 11.7812 16.3125ZM12.6875 14.5001C12.6875 15.0006 12.2818 15.4063 11.7813 15.4063C11.2808 15.4063 10.875 15.0006 10.875 14.5001C10.875 13.9996 11.2808 13.5938 11.7813 13.5938C12.2818 13.5938 12.6875 13.9996 12.6875 14.5001ZM17.2187 16.3125C16.2177 16.3125 15.4062 15.5011 15.4062 14.5C15.4062 13.499 16.2177 12.6875 17.2187 12.6875C18.2198 12.6875 19.0312 13.499 19.0312 14.5C19.0312 15.5011 18.2198 16.3125 17.2187 16.3125ZM18.125 14.5001C18.125 15.0006 17.7193 15.4063 17.2188 15.4063C16.7182 15.4063 16.3125 15.0006 16.3125 14.5001C16.3125 13.9996 16.7182 13.5938 17.2188 13.5938C17.7193 13.5938 18.125 13.9996 18.125 14.5001Z" fill="#E30611"/>
</symbol></svg>