<svg width="261" height="160" viewBox="0 0 261 160" fill="none" xmlns="http://www.w3.org/2000/svg">
<rect width="312" height="27" transform="translate(60.2832 188.2) rotate(-37.0366)" fill="#131721"/>
<path d="M80.5029 191.595L78.749 192.919L77.9866 191.908L79.7406 190.585C80.0275 190.368 80.2245 190.146 80.3317 189.919C80.4396 189.685 80.4733 189.454 80.4328 189.226C80.3899 188.994 80.2873 188.77 80.1249 188.555C79.9673 188.346 79.7782 188.183 79.5575 188.066C79.3369 187.948 79.0937 187.902 78.8282 187.926C78.5658 187.948 78.2911 188.067 78.0042 188.284L76.6712 189.289L81.0439 195.084L79.7577 196.055L74.6191 189.245L77.2384 187.269C77.7685 186.869 78.2924 186.623 78.8101 186.53C79.3285 186.433 79.8119 186.477 80.2601 186.662C80.709 186.842 81.0935 187.144 81.4135 187.568C81.7452 188.008 81.9313 188.462 81.9718 188.931C82.0153 189.397 81.9131 189.858 81.6652 190.314C81.4205 190.768 81.033 191.195 80.5029 191.595ZM83.8973 183.866L86.3148 191.107L84.9538 192.134L82.3596 183.404L83.2296 182.748L83.8973 183.866ZM89.8789 188.418L83.5699 184.113L82.673 183.168L83.5476 182.508L91.2447 187.387L89.8789 188.418ZM87.8807 185.955L88.6466 186.97L84.9936 189.726L84.2278 188.711L87.8807 185.955ZM94.5397 181.385L95.826 180.415C96.1352 180.896 96.3136 181.395 96.3612 181.912C96.4064 182.426 96.3095 182.93 96.0703 183.423C95.8311 183.917 95.434 184.373 94.8789 184.792C94.4518 185.114 94.0102 185.33 93.5543 185.439C93.0991 185.543 92.644 185.546 92.189 185.449C91.7348 185.346 91.2944 185.145 90.8678 184.846C90.4387 184.543 90.0372 184.144 89.6631 183.648L89.2713 183.129C88.8972 182.633 88.6251 182.136 88.4549 181.638C88.2847 181.14 88.2153 180.659 88.2468 180.195C88.279 179.726 88.409 179.285 88.6367 178.873C88.8675 178.459 89.1965 178.091 89.6237 177.769C90.1788 177.35 90.7257 177.099 91.2645 177.015C91.801 176.929 92.3093 176.983 92.7896 177.179C93.2699 177.374 93.7059 177.686 94.0978 178.115L92.8115 179.085C92.5701 178.817 92.3243 178.621 92.0739 178.497C91.8267 178.37 91.566 178.329 91.2919 178.375C91.0186 178.415 90.7213 178.556 90.4002 178.798C90.1507 178.986 89.9662 179.199 89.8465 179.436C89.73 179.671 89.68 179.929 89.6964 180.21C89.7105 180.488 89.7911 180.789 89.9381 181.114C90.0828 181.435 90.2916 181.777 90.5646 182.139L90.9634 182.667C91.2245 183.013 91.4867 183.302 91.7499 183.534C92.0131 183.766 92.2756 183.933 92.5377 184.034C92.7997 184.134 93.0619 184.164 93.3243 184.123C93.5866 184.081 93.8472 183.963 94.106 183.768C94.421 183.53 94.639 183.287 94.7602 183.039C94.8844 182.789 94.9251 182.528 94.8821 182.257C94.8423 181.984 94.7281 181.693 94.5397 181.385ZM99.225 170.678L104.364 177.489L103.077 178.459L98.7046 172.664L95.8234 174.838L100.196 180.633L98.9099 181.604L93.7714 174.794L99.225 170.678ZM106.816 171.741L105.062 173.064L104.299 172.054L106.053 170.73C106.34 170.514 106.537 170.292 106.644 170.064C106.752 169.831 106.786 169.6 106.745 169.371C106.703 169.139 106.6 168.916 106.438 168.701C106.28 168.492 106.091 168.329 105.87 168.211C105.65 168.094 105.406 168.047 105.141 168.072C104.878 168.094 104.604 168.213 104.317 168.429L102.984 169.435L107.357 175.23L106.07 176.201L100.932 169.391L103.551 167.414C104.081 167.014 104.605 166.768 105.123 166.676C105.641 166.578 106.125 166.622 106.573 166.808C107.022 166.988 107.406 167.29 107.726 167.714C108.058 168.153 108.244 168.608 108.284 169.076C108.328 169.542 108.226 170.004 107.978 170.46C107.733 170.914 107.346 171.341 106.816 171.741ZM115.414 163.535L115.679 163.886C116.067 164.4 116.348 164.915 116.521 165.43C116.692 165.942 116.76 166.437 116.724 166.914C116.687 167.392 116.552 167.839 116.318 168.255C116.085 168.671 115.754 169.041 115.327 169.363C114.906 169.681 114.462 169.896 113.994 170.009C113.529 170.12 113.061 170.128 112.589 170.034C112.117 169.94 111.656 169.742 111.208 169.439C110.757 169.134 110.337 168.724 109.949 168.209L109.684 167.858C109.294 167.341 109.015 166.825 108.847 166.31C108.679 165.796 108.613 165.3 108.649 164.823C108.683 164.342 108.817 163.894 109.051 163.477C109.288 163.059 109.617 162.691 110.038 162.373C110.465 162.051 110.911 161.834 111.375 161.723C111.84 161.613 112.308 161.607 112.779 161.706C113.251 161.8 113.71 162 114.155 162.305C114.604 162.607 115.024 163.017 115.414 163.535ZM114.379 164.867L114.107 164.507C113.827 164.136 113.547 163.836 113.266 163.607C112.984 163.375 112.702 163.213 112.422 163.121C112.142 163.029 111.868 163.008 111.598 163.06C111.327 163.108 111.067 163.225 110.821 163.411C110.572 163.599 110.388 163.816 110.27 164.062C110.153 164.302 110.1 164.57 110.112 164.864C110.124 165.159 110.201 165.475 110.343 165.813C110.486 166.145 110.698 166.497 110.978 166.868L111.249 167.228C111.527 167.596 111.807 167.896 112.09 168.128C112.376 168.358 112.66 168.52 112.942 168.615C113.225 168.705 113.501 168.727 113.77 168.681C114.038 168.635 114.297 168.518 114.547 168.329C114.796 168.141 114.98 167.924 115.098 167.679C115.216 167.433 115.268 167.164 115.253 166.872C115.239 166.574 115.159 166.258 115.013 165.922C114.868 165.587 114.656 165.235 114.379 164.867ZM124.058 161.042L124.821 162.052L119.858 165.797L119.096 164.787L124.058 161.042ZM119.447 164.522L121.469 167.202L120.248 168.123L118.165 165.489L119.447 164.522ZM125.017 160.319L126.945 163.078L125.752 163.977L123.726 161.293L125.017 160.319ZM118.882 155.846L119.648 156.861L116.44 159.282L115.674 158.267L118.882 155.846ZM119.832 155.129L124.97 161.94L123.689 162.907L118.55 156.096L119.832 155.129ZM115.468 158.422L116.754 157.452L118.671 160.351C118.982 160.816 119.235 161.249 119.43 161.65C119.628 162.048 119.781 162.42 119.889 162.764C119.997 163.108 120.07 163.428 120.106 163.723C120.144 164.013 120.154 164.282 120.136 164.531C120.121 164.777 120.086 165.006 120.031 165.219C119.977 165.426 119.916 165.621 119.849 165.804L119.133 166.344L118.371 165.334L118.68 165.101C118.711 164.955 118.724 164.774 118.718 164.558C118.715 164.34 118.673 164.08 118.593 163.779C118.515 163.475 118.379 163.12 118.185 162.714C117.991 162.307 117.723 161.845 117.38 161.325L115.468 158.422ZM125.392 152.556L127.809 159.798L126.448 160.825L123.854 152.095L124.724 151.438L125.392 152.556ZM131.373 157.108L125.064 152.804L124.167 151.858L125.042 151.198L132.739 156.078L131.373 157.108ZM129.375 154.645L130.141 155.66L126.488 158.416L125.722 157.401L129.375 154.645ZM133.772 150.784L128.241 148.784L129.826 147.588L133.539 149.191L134.741 148.284L135.418 149.542L133.772 150.784ZM134.256 150.132L134.867 154.472L133.262 155.683L132.649 150.083L134.256 150.132ZM133.423 144.874L138.562 151.684L137.28 152.651L132.142 145.841L133.423 144.874ZM137.273 141.969L137.706 147.816L136.073 149.048L135.05 148.051L136.238 147.154L135.682 143.169L137.273 141.969ZM140.924 149.902L136.951 148.099L137.349 146.536L142.528 148.691L140.924 149.902ZM141.93 140.078L144.347 147.319L142.986 148.346L140.392 139.616L141.262 138.959L141.93 140.078ZM147.911 144.629L141.602 140.325L140.705 139.379L141.58 138.719L149.277 143.599L147.911 144.629ZM145.913 142.166L146.679 143.181L143.026 145.937L142.26 144.922L145.913 142.166Z" fill="white"/>
<path d="M161.925 130.158L160.171 131.481L159.408 130.471L161.162 129.148C161.449 128.931 161.646 128.709 161.753 128.481C161.861 128.248 161.895 128.017 161.854 127.789C161.812 127.557 161.709 127.333 161.547 127.118C161.389 126.909 161.2 126.746 160.979 126.629C160.758 126.511 160.515 126.465 160.25 126.489C159.987 126.511 159.713 126.63 159.426 126.846L158.093 127.852L162.466 133.647L161.179 134.618L156.041 127.808L158.66 125.831C159.19 125.431 159.714 125.185 160.232 125.093C160.75 124.996 161.234 125.04 161.682 125.225C162.131 125.405 162.515 125.707 162.835 126.131C163.167 126.571 163.353 127.025 163.393 127.493C163.437 127.96 163.335 128.421 163.087 128.877C162.842 129.331 162.455 129.758 161.925 130.158ZM165.319 122.429L167.736 129.67L166.375 130.697L163.781 121.967L164.651 121.311L165.319 122.429ZM171.301 126.981L164.992 122.676L164.095 121.731L164.969 121.071L172.666 125.95L171.301 126.981ZM169.302 124.518L170.068 125.533L166.415 128.289L165.649 127.274L169.302 124.518ZM175.961 119.948L177.248 118.978C177.557 119.459 177.735 119.958 177.783 120.475C177.828 120.989 177.731 121.493 177.492 121.986C177.253 122.48 176.856 122.936 176.301 123.355C175.873 123.677 175.432 123.893 174.976 124.002C174.521 124.106 174.066 124.109 173.611 124.012C173.156 123.909 172.716 123.708 172.289 123.409C171.86 123.106 171.459 122.707 171.085 122.211L170.693 121.692C170.319 121.196 170.047 120.699 169.877 120.201C169.706 119.703 169.637 119.222 169.668 118.758C169.701 118.289 169.831 117.848 170.058 117.436C170.289 117.022 170.618 116.654 171.045 116.332C171.6 115.913 172.147 115.662 172.686 115.578C173.223 115.492 173.731 115.546 174.211 115.741C174.691 115.937 175.128 116.249 175.519 116.677L174.233 117.648C173.992 117.38 173.746 117.184 173.496 117.06C173.248 116.933 172.988 116.892 172.714 116.938C172.44 116.977 172.143 117.119 171.822 117.361C171.572 117.549 171.388 117.762 171.268 117.999C171.152 118.234 171.102 118.491 171.118 118.773C171.132 119.051 171.213 119.352 171.36 119.677C171.504 119.998 171.713 120.34 171.986 120.701L172.385 121.23C172.646 121.576 172.908 121.865 173.172 122.097C173.435 122.329 173.697 122.496 173.959 122.596C174.221 122.697 174.484 122.727 174.746 122.686C175.008 122.644 175.269 122.526 175.528 122.331C175.843 122.093 176.061 121.85 176.182 121.602C176.306 121.352 176.347 121.091 176.304 120.82C176.264 120.547 176.15 120.256 175.961 119.948ZM180.647 109.241L185.785 116.051L184.499 117.022L180.126 111.227L177.245 113.401L181.618 119.196L180.332 120.166L175.193 113.356L180.647 109.241ZM188.237 110.303L186.483 111.627L185.721 110.617L187.475 109.293C187.762 109.077 187.959 108.855 188.066 108.627C188.174 108.394 188.208 108.163 188.167 107.934C188.124 107.702 188.022 107.479 187.859 107.264C187.702 107.055 187.513 106.892 187.292 106.774C187.071 106.657 186.828 106.61 186.563 106.635C186.3 106.656 186.025 106.776 185.739 106.992L184.406 107.998L188.778 113.793L187.492 114.763L182.353 107.953L184.973 105.977C185.503 105.577 186.027 105.331 186.544 105.239C187.063 105.141 187.546 105.185 187.994 105.371C188.443 105.551 188.828 105.853 189.148 106.277C189.48 106.716 189.666 107.17 189.706 107.639C189.75 108.105 189.647 108.567 189.4 109.023C189.155 109.477 188.767 109.904 188.237 110.303ZM196.836 102.098L197.1 102.449C197.489 102.963 197.769 103.478 197.943 103.993C198.114 104.505 198.181 105 198.145 105.477C198.109 105.955 197.974 106.402 197.74 106.818C197.506 107.234 197.176 107.604 196.748 107.926C196.327 108.244 195.883 108.459 195.416 108.572C194.951 108.683 194.483 108.691 194.01 108.597C193.538 108.503 193.078 108.305 192.629 108.002C192.179 107.697 191.759 107.286 191.371 106.772L191.106 106.421C190.716 105.904 190.436 105.388 190.268 104.873C190.1 104.359 190.035 103.863 190.071 103.386C190.104 102.905 190.238 102.457 190.472 102.04C190.709 101.622 191.038 101.253 191.459 100.936C191.886 100.613 192.332 100.397 192.797 100.286C193.261 100.175 193.729 100.17 194.201 100.269C194.673 100.363 195.132 100.563 195.577 100.868C196.026 101.17 196.445 101.58 196.836 102.098ZM195.8 103.43L195.528 103.07C195.248 102.699 194.968 102.399 194.688 102.17C194.405 101.938 194.124 101.776 193.844 101.684C193.564 101.591 193.289 101.571 193.02 101.623C192.748 101.671 192.489 101.788 192.243 101.974C191.993 102.162 191.81 102.379 191.692 102.625C191.574 102.865 191.522 103.132 191.533 103.427C191.545 103.721 191.622 104.038 191.765 104.376C191.908 104.708 192.119 105.06 192.399 105.431L192.671 105.791C192.949 106.159 193.229 106.459 193.512 106.691C193.797 106.92 194.081 107.083 194.364 107.178C194.647 107.268 194.923 107.29 195.191 107.244C195.46 107.198 195.719 107.08 195.968 106.892C196.218 106.704 196.402 106.487 196.52 106.241C196.638 105.996 196.689 105.727 196.674 105.435C196.66 105.137 196.58 104.82 196.435 104.485C196.289 104.149 196.078 103.798 195.8 103.43ZM205.48 99.605L206.242 100.615L201.28 104.36L200.518 103.35L205.48 99.605ZM200.868 103.085L202.891 105.765L201.67 106.686L199.587 104.052L200.868 103.085ZM206.439 98.8815L208.367 101.64L207.174 102.54L205.148 99.8556L206.439 98.8815ZM200.304 94.4087L201.07 95.4237L197.861 97.8448L197.095 96.8298L200.304 94.4087ZM201.254 93.6923L206.392 100.502L205.111 101.469L199.972 94.6593L201.254 93.6923ZM196.89 96.9851L198.176 96.0145L200.092 98.9141C200.404 99.3788 200.657 99.8116 200.852 100.213C201.05 100.611 201.203 100.983 201.311 101.327C201.419 101.671 201.491 101.991 201.528 102.286C201.566 102.576 201.575 102.845 201.557 103.093C201.543 103.34 201.508 103.569 201.453 103.782C201.399 103.989 201.338 104.184 201.271 104.367L200.555 104.907L199.793 103.897L200.101 103.664C200.133 103.517 200.146 103.337 200.14 103.121C200.137 102.903 200.095 102.643 200.014 102.342C199.937 102.038 199.801 101.683 199.607 101.277C199.413 100.87 199.144 100.407 198.801 99.8881L196.89 96.9851ZM206.813 91.1194L209.231 98.3604L207.87 99.3874L205.276 90.6574L206.146 90.001L206.813 91.1194ZM212.795 95.6711L206.486 91.3664L205.589 90.421L206.464 89.761L214.161 94.6406L212.795 95.6711ZM210.797 93.2078L211.563 94.2227L207.91 96.9791L207.144 95.9641L210.797 93.2078ZM215.194 89.3468L209.662 87.3473L211.248 86.1509L214.961 87.7537L216.163 86.8467L216.84 88.1045L215.194 89.3468ZM215.678 88.695L216.288 93.0351L214.684 94.2456L214.07 88.6458L215.678 88.695ZM214.845 83.4369L219.983 90.247L218.702 91.214L213.563 84.4039L214.845 83.4369ZM218.694 80.5323L219.127 86.3787L217.495 87.6104L216.471 86.6138L217.659 85.7174L217.104 81.7322L218.694 80.5323ZM222.345 88.4647L218.372 86.6622L218.771 85.0989L223.95 87.2542L222.345 88.4647ZM223.351 78.6405L225.769 85.8816L224.408 86.9086L221.814 78.1786L222.684 77.5221L223.351 78.6405ZM229.333 83.1923L223.024 78.8876L222.127 77.9421L223.002 77.2821L230.699 82.1617L229.333 83.1923ZM227.335 80.7289L228.101 81.7439L224.448 84.5002L223.682 83.4853L227.335 80.7289Z" fill="white"/>
<path d="M243.346 68.7208L241.592 70.0443L240.83 69.034L242.584 67.7105C242.871 67.4941 243.068 67.272 243.175 67.0443C243.283 66.8112 243.317 66.5803 243.276 66.3515C243.233 66.1196 243.131 65.896 242.968 65.6809C242.811 65.472 242.621 65.3088 242.401 65.1915C242.18 65.0742 241.937 65.0276 241.671 65.0518C241.409 65.0737 241.134 65.1928 240.847 65.4093L239.514 66.4151L243.887 72.2103L242.601 73.1808L237.462 66.3707L240.082 64.3943C240.612 63.9944 241.136 63.7483 241.653 63.6562C242.172 63.5586 242.655 63.6025 243.103 63.7879C243.552 63.9678 243.937 64.2698 244.257 64.6939C244.589 65.1336 244.775 65.5877 244.815 66.0564C244.859 66.5226 244.756 66.9839 244.508 67.4401C244.264 67.8939 243.876 68.3208 243.346 68.7208ZM246.741 60.992L249.158 68.2331L247.797 69.2601L245.203 60.5301L246.073 59.8737L246.741 60.992ZM252.722 65.5438L246.413 61.2391L245.516 60.2936L246.391 59.6337L254.088 64.5133L252.722 65.5438ZM250.724 63.0805L251.49 64.0954L247.837 66.8518L247.071 65.8368L250.724 63.0805ZM257.383 58.511L258.669 57.5404C258.978 58.0215 259.157 58.5206 259.204 59.0377C259.25 59.5516 259.153 60.0554 258.914 60.5491C258.674 61.0428 258.277 61.499 257.722 61.9178C257.295 62.2401 256.853 62.4559 256.398 62.565C255.942 62.6687 255.487 62.672 255.032 62.5748C254.578 62.4723 254.138 62.2712 253.711 61.9717C253.282 61.669 252.88 61.2698 252.506 60.774L252.115 60.2548C251.741 59.759 251.468 59.2621 251.298 58.7642C251.128 58.2663 251.059 57.7852 251.09 57.3211C251.122 56.8514 251.252 56.4108 251.48 55.9992C251.711 55.5853 252.04 55.2171 252.467 54.8948C253.022 54.476 253.569 54.2248 254.108 54.1412C254.644 54.0544 255.153 54.1088 255.633 54.3043C256.113 54.4998 256.549 54.8118 256.941 55.2404L255.655 56.2109C255.413 55.9428 255.168 55.7467 254.917 55.6224C254.67 55.4958 254.409 55.4551 254.135 55.5005C253.862 55.5403 253.565 55.6814 253.243 55.9238C252.994 56.112 252.809 56.3246 252.69 56.5617C252.573 56.7964 252.523 57.0544 252.54 57.3356C252.554 57.6137 252.634 57.915 252.781 58.2396C252.926 58.561 253.135 58.9026 253.408 59.2643L253.807 59.7928C254.068 60.139 254.33 60.428 254.593 60.6601C254.856 60.8921 255.119 61.0586 255.381 61.1594C255.643 61.2602 255.905 61.2899 256.168 61.2485C256.43 61.2071 256.69 61.0888 256.949 60.8935C257.264 60.6558 257.482 60.413 257.603 60.165C257.728 59.9146 257.768 59.654 257.725 59.383C257.686 59.1097 257.571 58.819 257.383 58.511ZM262.068 47.8042L267.207 54.6143L265.921 55.5848L261.548 49.7897L258.667 51.9637L263.039 57.7588L261.753 58.7294L256.615 51.9193L262.068 47.8042ZM269.659 48.8664L267.905 50.1899L267.143 49.1796L268.897 47.8561C269.183 47.6396 269.38 47.4176 269.488 47.1899C269.596 46.9568 269.629 46.7258 269.589 46.4971C269.546 46.2651 269.443 46.0416 269.281 45.8265C269.123 45.6175 268.934 45.4544 268.713 45.3371C268.493 45.2198 268.25 45.1732 267.984 45.1974C267.722 45.2193 267.447 45.3384 267.16 45.5549L265.827 46.5607L270.2 52.3558L268.914 53.3264L263.775 46.5163L266.394 44.5399C266.924 44.14 267.448 43.8939 267.966 43.8018C268.485 43.7042 268.968 43.7481 269.416 43.9335C269.865 44.1134 270.249 44.4154 270.569 44.8395C270.901 45.2792 271.087 45.7333 271.128 46.202C271.171 46.6682 271.069 47.1295 270.821 47.5857C270.576 48.0395 270.189 48.4664 269.659 48.8664ZM278.257 40.6608L278.522 41.0116C278.91 41.5261 279.191 42.0409 279.364 42.556C279.535 43.068 279.603 43.5627 279.567 44.0402C279.531 44.5176 279.396 44.9645 279.162 45.3808C278.928 45.7971 278.597 46.1664 278.17 46.4888C277.749 46.8064 277.305 47.0218 276.837 47.1348C276.373 47.2456 275.904 47.254 275.432 47.16C274.96 47.0661 274.5 46.8678 274.051 46.5652C273.6 46.2595 273.181 45.8494 272.792 45.3349L272.528 44.9841C272.137 44.4665 271.858 43.9505 271.69 43.4361C271.522 42.9218 271.456 42.4259 271.492 41.9484C271.526 41.4678 271.66 41.0194 271.894 40.6031C272.131 40.1844 272.46 39.8163 272.881 39.4987C273.308 39.1763 273.754 38.9598 274.218 38.8491C274.683 38.7383 275.151 38.7327 275.622 38.8321C276.095 38.926 276.553 39.1255 276.999 39.4304C277.447 39.733 277.867 40.1431 278.257 40.6608ZM277.222 41.9927L276.95 41.6325C276.67 41.2615 276.39 40.9615 276.11 40.7326C275.827 40.5006 275.545 40.3386 275.266 40.2464C274.986 40.1543 274.711 40.134 274.442 40.1855C274.17 40.234 273.911 40.3511 273.664 40.537C273.415 40.7252 273.231 40.9422 273.113 41.1878C272.996 41.428 272.943 41.6954 272.955 41.9899C272.967 42.2844 273.044 42.6005 273.186 42.9384C273.329 43.2708 273.541 43.6225 273.821 43.9936L274.093 44.3538C274.37 44.7217 274.651 45.0217 274.933 45.2537C275.219 45.4833 275.503 45.6457 275.785 45.741C276.068 45.8308 276.344 45.8527 276.613 45.8066C276.882 45.7605 277.141 45.6433 277.39 45.4551C277.64 45.2669 277.823 45.0499 277.941 44.8043C278.059 44.5586 278.111 44.2897 278.096 43.9976C278.082 43.7 278.002 43.3834 277.857 43.0479C277.711 42.7124 277.499 42.3606 277.222 41.9927ZM286.902 38.1679L287.664 39.1782L282.701 42.9227L281.939 41.9124L286.902 38.1679ZM282.29 41.6478L284.312 44.3278L283.091 45.249L281.008 42.6148L282.29 41.6478ZM287.861 37.4444L289.788 40.2033L288.595 41.1032L286.57 38.4185L287.861 37.4444ZM281.726 32.9716L282.492 33.9866L279.283 36.4077L278.517 35.3927L281.726 32.9716ZM282.675 32.2552L287.814 39.0653L286.532 40.0323L281.394 33.2222L282.675 32.2552ZM278.311 35.548L279.598 34.5774L281.514 37.4769C281.825 37.9417 282.078 38.3745 282.273 38.7755C282.471 39.1742 282.624 39.5456 282.733 39.8898C282.841 40.234 282.913 40.5538 282.95 40.849C282.987 41.1387 282.997 41.4078 282.979 41.6563C282.964 41.9024 282.929 42.1318 282.874 42.3445C282.82 42.5517 282.76 42.7468 282.692 42.9298L281.977 43.4698L281.214 42.4595L281.523 42.2266C281.555 42.0804 281.567 41.8995 281.561 41.6839C281.558 41.4659 281.516 41.2063 281.436 40.9049C281.358 40.6012 281.223 40.2462 281.028 39.8397C280.834 39.4332 280.566 38.9703 280.223 38.451L278.311 35.548ZM288.235 29.6823L290.652 36.9233L289.291 37.9503L286.697 29.2203L287.567 28.5639L288.235 29.6823ZM294.217 34.234L287.907 29.9293L287.011 28.9839L287.885 28.3239L295.582 33.2035L294.217 34.234ZM292.218 31.7707L292.984 32.7856L289.331 35.542L288.565 34.527L292.218 31.7707ZM296.615 27.9097L291.084 25.9102L292.67 24.7138L296.382 26.3166L297.584 25.4096L298.262 26.6674L296.615 27.9097ZM297.1 27.2579L297.71 31.598L296.106 32.8085L295.492 27.2087L297.1 27.2579ZM296.266 21.9998L301.405 28.8098L300.124 29.7769L294.985 22.9668L296.266 21.9998ZM300.116 19.0952L300.549 24.9416L298.917 26.1733L297.893 25.1767L299.081 24.2803L298.526 20.2951L300.116 19.0952ZM303.767 27.0276L299.794 25.2251L300.192 23.6618L305.371 25.817L303.767 27.0276ZM304.773 17.2034L307.19 24.4445L305.829 25.4715L303.235 16.7415L304.105 16.085L304.773 17.2034ZM310.755 21.7552L304.445 17.4505L303.549 16.505L304.423 15.845L312.12 20.7246L310.755 21.7552ZM308.756 19.2918L309.522 20.3068L305.869 23.0631L305.103 22.0482L308.756 19.2918Z" fill="white"/>
<rect width="312" height="27" transform="translate(0 159.92) rotate(-17.3267)" fill="#E30611"/>
<path d="M17.8902 169.935L15.7926 170.589L15.4157 169.381L17.5132 168.727C17.8563 168.62 18.1167 168.477 18.2943 168.299C18.4745 168.116 18.5842 167.91 18.6232 167.681C18.661 167.448 18.6398 167.203 18.5596 166.946C18.4816 166.696 18.3586 166.478 18.1904 166.294C18.0223 166.109 17.8091 165.983 17.5509 165.916C17.2965 165.848 16.9978 165.868 16.6547 165.975L15.0605 166.472L17.2226 173.402L15.6844 173.882L13.1437 165.738L16.276 164.761C16.9099 164.563 17.4861 164.508 18.0046 164.596C18.5256 164.679 18.9658 164.883 19.3252 165.209C19.6872 165.53 19.9473 165.944 20.1055 166.451C20.2695 166.977 20.2915 167.467 20.1715 167.922C20.0553 168.376 19.8035 168.775 19.4163 169.121C19.0328 169.466 18.5241 169.737 17.8902 169.935ZM23.6922 163.804L23.5261 171.436L21.8984 171.944L22.4004 162.85L23.4408 162.526L23.6922 163.804ZM27.7883 170.106L23.3007 163.926L22.7752 162.733L23.8212 162.407L29.4216 169.597L27.7883 170.106ZM26.738 167.113L27.1166 168.327L22.7481 169.69L22.3694 168.476L26.738 167.113ZM34.5479 165.057L36.0861 164.577C36.215 165.135 36.2146 165.665 36.085 166.167C35.9543 166.667 35.6931 167.108 35.3014 167.492C34.9098 167.876 34.382 168.172 33.7183 168.379C33.2074 168.538 32.719 168.592 32.2529 168.541C31.7895 168.486 31.36 168.335 30.9644 168.09C30.5714 167.841 30.2246 167.503 29.9239 167.077C29.6221 166.647 29.3788 166.136 29.1938 165.543L29.0001 164.922C28.8151 164.329 28.7265 163.77 28.7342 163.244C28.7419 162.717 28.8388 162.241 29.025 161.815C29.2137 161.384 29.4847 161.013 29.8378 160.702C30.1948 160.39 30.6286 160.154 31.1395 159.995C31.8033 159.788 32.4029 159.736 32.9383 159.839C33.4726 159.938 33.9329 160.161 34.3191 160.507C34.7052 160.853 35.0105 161.294 35.2349 161.829L33.6967 162.309C33.5598 161.975 33.3945 161.708 33.2007 161.506C33.0107 161.304 32.779 161.178 32.5057 161.128C32.2349 161.073 31.9075 161.106 31.5234 161.226C31.2251 161.319 30.9797 161.457 30.7871 161.639C30.5983 161.821 30.4642 162.047 30.3848 162.317C30.3043 162.584 30.2785 162.895 30.3075 163.25C30.3353 163.601 30.4166 163.993 30.5516 164.426L30.7488 165.058C30.8779 165.472 31.0272 165.832 31.1967 166.14C31.3662 166.447 31.5573 166.692 31.77 166.875C31.9826 167.059 32.2194 167.175 32.4804 167.224C32.7414 167.274 33.0266 167.251 33.3361 167.154C33.7128 167.036 33.9999 166.881 34.1976 166.689C34.399 166.495 34.5252 166.263 34.5761 165.994C34.6308 165.723 34.6214 165.411 34.5479 165.057ZM42.5697 156.558L45.1104 164.702L43.5722 165.182L41.4101 158.252L37.9645 159.327L40.1266 166.257L38.5884 166.737L36.0476 158.593L42.5697 156.558ZM49.3573 160.118L47.2598 160.772L46.8829 159.564L48.9804 158.91C49.3235 158.803 49.5838 158.66 49.7615 158.482C49.9417 158.299 50.0513 158.093 50.0904 157.864C50.1282 157.631 50.107 157.386 50.0267 157.129C49.9488 156.879 49.8257 156.661 49.6576 156.477C49.4894 156.292 49.2763 156.166 49.0181 156.099C48.7637 156.031 48.4649 156.051 48.1219 156.158L46.5277 156.655L48.6898 163.585L47.1516 164.065L44.6108 155.921L47.7432 154.944C48.3771 154.746 48.9533 154.691 49.4717 154.779C49.9928 154.862 50.433 155.066 50.7924 155.392C51.1543 155.713 51.4144 156.127 51.5726 156.634C51.7367 157.16 51.7587 157.65 51.6387 158.105C51.5224 158.559 51.2707 158.958 50.8835 159.304C50.5 159.649 49.9913 159.92 49.3573 160.118ZM60.2194 155.293L60.3503 155.712C60.5423 156.328 60.633 156.907 60.6225 157.45C60.6108 157.99 60.5075 158.479 60.3124 158.916C60.1174 159.353 59.8396 159.728 59.4789 160.041C59.1183 160.354 58.6825 160.591 58.1717 160.75C57.6683 160.907 57.1774 160.96 56.699 160.909C56.2243 160.856 55.7806 160.706 55.3678 160.459C54.955 160.211 54.5885 159.869 54.2683 159.433C53.9469 158.993 53.6902 158.465 53.4983 157.85L53.3674 157.431C53.1743 156.812 53.0854 156.232 53.1008 155.691C53.1163 155.15 53.2215 154.661 53.4165 154.224C53.6103 153.783 53.8876 153.406 54.2482 153.093C54.6126 152.778 55.0465 152.543 55.5499 152.386C56.0608 152.226 56.5535 152.173 57.0282 152.225C57.5028 152.278 57.9453 152.43 58.3555 152.683C58.7683 152.93 59.133 153.273 59.4495 153.71C59.7697 154.146 60.0263 154.674 60.2194 155.293ZM58.7953 156.198L58.661 155.767C58.5225 155.323 58.3599 154.946 58.1732 154.636C57.9853 154.322 57.7751 154.075 57.5426 153.894C57.3101 153.713 57.0584 153.601 56.7874 153.559C56.5153 153.513 56.2319 153.536 55.9373 153.627C55.639 153.72 55.3928 153.863 55.1989 154.054C55.0075 154.241 54.8677 154.475 54.7794 154.756C54.6912 155.037 54.6572 155.361 54.6773 155.727C54.6999 156.088 54.7805 156.491 54.9189 156.934L55.0533 157.365C55.1906 157.805 55.3532 158.182 55.5411 158.496C55.7327 158.808 55.9453 159.057 56.179 159.242C56.4152 159.422 56.6675 159.535 56.9359 159.583C57.2043 159.63 57.4877 159.607 57.786 159.514C58.0843 159.421 58.3305 159.279 58.5245 159.087C58.7184 158.896 58.8577 158.66 58.9421 158.38C59.0292 158.095 59.0608 157.77 59.037 157.405C59.0132 157.04 58.9326 156.638 58.7953 156.198ZM69.1981 155.861L69.575 157.07L63.6403 158.921L63.2634 157.713L69.1981 155.861ZM63.6829 157.582L64.6828 160.787L63.2229 161.243L62.1503 158.06L63.6829 157.582ZM70.3447 155.504L71.2289 158.751L69.8026 159.196L68.8009 155.985L70.3447 155.504ZM66.0777 149.224L66.4564 150.438L62.6193 151.635L62.2406 150.421L66.0777 149.224ZM67.2132 148.87L69.754 157.014L68.2214 157.492L65.6806 149.348L67.2132 148.87ZM61.9945 150.498L63.5327 150.018L64.3588 153.394C64.4953 153.936 64.5877 154.429 64.636 154.873C64.688 155.315 64.7068 155.716 64.6924 156.076C64.678 156.437 64.6384 156.762 64.5734 157.053C64.5111 157.338 64.4295 157.595 64.3287 157.823C64.2317 158.049 64.1215 158.253 63.9981 158.435C63.8773 158.612 63.7543 158.775 63.6291 158.925L62.7733 159.192L62.3964 157.983L62.7656 157.868C62.8446 157.741 62.9176 157.575 62.9846 157.37C63.0553 157.164 63.1036 156.906 63.1293 156.595C63.1589 156.283 63.1508 155.903 63.1051 155.455C63.0594 155.006 62.9627 154.48 62.815 153.876L61.9945 150.498ZM73.315 148.323L73.1488 155.955L71.5211 156.463L72.0232 147.369L73.0636 147.045L73.315 148.323ZM77.411 154.625L72.9234 148.445L72.3979 147.252L73.4439 146.926L79.0443 154.115L77.411 154.625ZM76.3607 151.632L76.7394 152.846L72.3709 154.209L71.9922 152.995L76.3607 151.632ZM81.8022 149.48L77.2694 145.732L79.1656 145.141L82.12 147.902L83.5575 147.453L83.7711 148.866L81.8022 149.48ZM82.4781 149.03L81.5889 153.322L79.6704 153.92L80.9809 148.441L82.4781 149.03ZM83.467 143.799L86.0078 151.943L84.4752 152.421L81.9344 144.277L83.467 143.799ZM88.0704 142.363L86.5063 148.013L84.5542 148.622L83.9267 147.338L85.3475 146.895L86.1687 142.956L88.0704 142.363ZM88.8325 151.062L85.7 148.025L86.6024 146.688L90.7511 150.463L88.8325 151.062ZM93.0927 142.152L92.9265 149.785L91.2988 150.292L91.8009 141.199L92.8412 140.874L93.0927 142.152ZM97.1887 148.455L92.7011 142.275L92.1756 141.082L93.2216 140.756L98.822 147.945L97.1887 148.455ZM96.1384 145.462L96.517 146.676L92.1485 148.039L91.7699 146.825L96.1384 145.462Z" fill="white"/>
<path d="M115.262 139.557L113.164 140.212L112.787 139.004L114.885 138.349C115.228 138.242 115.488 138.099 115.666 137.921C115.846 137.738 115.956 137.532 115.995 137.303C116.033 137.07 116.011 136.825 115.931 136.568C115.853 136.318 115.73 136.101 115.562 135.916C115.394 135.731 115.181 135.605 114.922 135.538C114.668 135.471 114.369 135.49 114.026 135.597L112.432 136.094L114.594 143.025L113.056 143.505L110.515 135.361L113.647 134.383C114.281 134.186 114.858 134.131 115.376 134.218C115.897 134.301 116.337 134.506 116.697 134.832C117.059 135.152 117.319 135.566 117.477 136.073C117.641 136.599 117.663 137.09 117.543 137.544C117.427 137.998 117.175 138.398 116.788 138.744C116.404 139.088 115.896 139.36 115.262 139.557ZM121.064 133.426L120.898 141.058L119.27 141.566L119.772 132.473L120.812 132.148L121.064 133.426ZM125.16 139.729L120.672 133.548L120.147 132.356L121.193 132.029L126.793 139.219L125.16 139.729ZM124.109 136.736L124.488 137.949L120.12 139.312L119.741 138.099L124.109 136.736ZM131.919 134.68L133.458 134.2C133.586 134.757 133.586 135.287 133.456 135.79C133.326 136.289 133.065 136.73 132.673 137.115C132.281 137.499 131.754 137.794 131.09 138.001C130.579 138.161 130.09 138.215 129.624 138.164C129.161 138.108 128.731 137.958 128.336 137.713C127.943 137.463 127.596 137.125 127.295 136.699C126.994 136.27 126.75 135.758 126.565 135.165L126.372 134.545C126.187 133.952 126.098 133.392 126.106 132.866C126.113 132.34 126.21 131.863 126.396 131.437C126.585 131.006 126.856 130.635 127.209 130.324C127.566 130.012 128 129.777 128.511 129.617C129.175 129.41 129.774 129.358 130.31 129.461C130.844 129.561 131.304 129.783 131.691 130.129C132.077 130.475 132.382 130.916 132.606 131.452L131.068 131.932C130.931 131.598 130.766 131.33 130.572 131.129C130.382 130.926 130.15 130.8 129.877 130.75C129.606 130.696 129.279 130.728 128.895 130.848C128.597 130.941 128.351 131.079 128.159 131.262C127.97 131.443 127.836 131.669 127.756 131.94C127.676 132.206 127.65 132.517 127.679 132.872C127.707 133.224 127.788 133.616 127.923 134.048L128.12 134.68C128.249 135.094 128.399 135.455 128.568 135.762C128.738 136.069 128.929 136.314 129.141 136.498C129.354 136.681 129.591 136.797 129.852 136.847C130.113 136.896 130.398 136.873 130.708 136.776C131.084 136.659 131.371 136.504 131.569 136.311C131.771 136.117 131.897 135.886 131.948 135.616C132.002 135.345 131.993 135.033 131.919 134.68ZM139.941 126.18L142.482 134.324L140.944 134.804L138.782 127.874L135.336 128.949L137.498 135.879L135.96 136.359L133.419 128.215L139.941 126.18ZM146.729 129.74L144.631 130.395L144.254 129.186L146.352 128.532C146.695 128.425 146.955 128.282 147.133 128.104C147.313 127.921 147.423 127.715 147.462 127.486C147.5 127.253 147.478 127.008 147.398 126.751C147.32 126.501 147.197 126.284 147.029 126.099C146.861 125.914 146.648 125.788 146.39 125.721C146.135 125.654 145.836 125.673 145.493 125.78L143.899 126.277L146.061 133.208L144.523 133.688L141.982 125.544L145.115 124.566C145.749 124.369 146.325 124.314 146.843 124.401C147.364 124.484 147.804 124.689 148.164 125.014C148.526 125.335 148.786 125.749 148.944 126.256C149.108 126.782 149.13 127.273 149.01 127.727C148.894 128.181 148.642 128.581 148.255 128.927C147.871 129.271 147.363 129.543 146.729 129.74ZM157.591 124.915L157.722 125.335C157.914 125.95 158.004 126.529 157.994 127.073C157.982 127.613 157.879 128.101 157.684 128.538C157.489 128.976 157.211 129.351 156.85 129.664C156.49 129.977 156.054 130.213 155.543 130.372C155.04 130.529 154.549 130.582 154.07 130.531C153.596 130.479 153.152 130.329 152.739 130.081C152.326 129.833 151.96 129.491 151.64 129.055C151.318 128.615 151.062 128.088 150.87 127.472L150.739 127.053C150.546 126.434 150.457 125.854 150.472 125.313C150.488 124.772 150.593 124.283 150.788 123.846C150.982 123.405 151.259 123.028 151.62 122.715C151.984 122.401 152.418 122.165 152.921 122.008C153.432 121.849 153.925 121.795 154.4 121.848C154.874 121.9 155.317 122.053 155.727 122.305C156.14 122.553 156.504 122.895 156.821 123.333C157.141 123.769 157.398 124.296 157.591 124.915ZM156.167 125.82L156.032 125.389C155.894 124.945 155.731 124.569 155.545 124.259C155.357 123.945 155.147 123.697 154.914 123.516C154.682 123.335 154.43 123.223 154.159 123.181C153.887 123.135 153.603 123.158 153.309 123.25C153.01 123.343 152.764 123.485 152.57 123.677C152.379 123.863 152.239 124.097 152.151 124.378C152.063 124.659 152.029 124.983 152.049 125.349C152.071 125.71 152.152 126.113 152.29 126.557L152.425 126.987C152.562 127.427 152.725 127.804 152.913 128.118C153.104 128.431 153.317 128.679 153.55 128.864C153.787 129.044 154.039 129.158 154.307 129.205C154.576 129.252 154.859 129.229 155.157 129.136C155.456 129.043 155.702 128.901 155.896 128.709C156.09 128.518 156.229 128.282 156.314 128.002C156.401 127.717 156.432 127.392 156.408 127.027C156.385 126.662 156.304 126.26 156.167 125.82ZM166.57 125.484L166.946 126.692L161.012 128.544L160.635 127.335L166.57 125.484ZM161.054 127.204L162.054 130.41L160.594 130.865L159.522 127.683L161.054 127.204ZM167.716 125.126L168.6 128.373L167.174 128.818L166.172 125.608L167.716 125.126ZM163.449 118.846L163.828 120.06L159.991 121.257L159.612 120.043L163.449 118.846ZM164.585 118.492L167.125 126.636L165.593 127.114L163.052 118.97L164.585 118.492ZM159.366 120.12L160.904 119.64L161.73 123.016C161.867 123.559 161.959 124.052 162.007 124.495C162.059 124.937 162.078 125.338 162.064 125.699C162.049 126.059 162.01 126.385 161.945 126.675C161.883 126.96 161.801 127.217 161.7 127.445C161.603 127.672 161.493 127.876 161.37 128.058C161.249 128.234 161.126 128.397 161.001 128.547L160.145 128.814L159.768 127.606L160.137 127.491C160.216 127.364 160.289 127.198 160.356 126.993C160.427 126.786 160.475 126.528 160.501 126.217C160.53 125.905 160.522 125.525 160.477 125.077C160.431 124.629 160.334 124.102 160.186 123.498L159.366 120.12ZM170.686 117.945L170.52 125.577L168.893 126.085L169.395 116.992L170.435 116.667L170.686 117.945ZM174.782 124.247L170.295 118.067L169.769 116.875L170.815 116.548L176.416 123.738L174.782 124.247ZM173.732 121.254L174.111 122.468L169.742 123.831L169.364 122.617L173.732 121.254ZM179.174 119.103L174.641 115.355L176.537 114.763L179.491 117.524L180.929 117.076L181.143 118.488L179.174 119.103ZM179.85 118.652L178.96 122.944L177.042 123.543L178.352 118.064L179.85 118.652ZM180.838 113.421L183.379 121.565L181.847 122.044L179.306 113.899L180.838 113.421ZM185.442 111.985L183.878 117.635L181.926 118.244L181.298 116.961L182.719 116.517L183.54 112.578L185.442 111.985ZM186.204 120.684L183.071 117.647L183.974 116.31L188.123 120.086L186.204 120.684ZM190.464 111.775L190.298 119.407L188.67 119.915L189.172 110.821L190.213 110.497L190.464 111.775ZM194.56 118.077L190.073 111.897L189.547 110.704L190.593 110.378L196.193 117.568L194.56 118.077ZM193.51 115.084L193.889 116.298L189.52 117.661L189.141 116.447L193.51 115.084Z" fill="white"/>
<path d="M212.633 109.18L210.536 109.834L210.159 108.626L212.256 107.971C212.599 107.864 212.86 107.722 213.037 107.544C213.217 107.361 213.327 107.155 213.366 106.925C213.404 106.693 213.383 106.448 213.302 106.19C213.225 105.941 213.101 105.723 212.933 105.538C212.765 105.353 212.552 105.228 212.294 105.161C212.039 105.093 211.741 105.112 211.398 105.219L209.803 105.717L211.966 112.647L210.427 113.127L207.887 104.983L211.019 104.006C211.653 103.808 212.229 103.753 212.747 103.841C213.268 103.924 213.709 104.128 214.068 104.454C214.43 104.775 214.69 105.189 214.848 105.696C215.012 106.222 215.034 106.712 214.914 107.167C214.798 107.62 214.546 108.02 214.159 108.366C213.776 108.711 213.267 108.982 212.633 109.18ZM218.435 103.048L218.269 110.681L216.641 111.188L217.143 102.095L218.184 101.77L218.435 103.048ZM222.531 109.351L218.044 103.171L217.518 101.978L218.564 101.652L224.165 108.841L222.531 109.351ZM221.481 106.358L221.86 107.572L217.491 108.935L217.112 107.721L221.481 106.358ZM229.291 104.302L230.829 103.822C230.958 104.379 230.958 104.909 230.828 105.412C230.697 105.911 230.436 106.353 230.044 106.737C229.653 107.121 229.125 107.417 228.461 107.624C227.95 107.783 227.462 107.837 226.996 107.786C226.532 107.73 226.103 107.58 225.707 107.335C225.314 107.085 224.967 106.747 224.667 106.322C224.365 105.892 224.122 105.381 223.937 104.788L223.743 104.167C223.558 103.574 223.469 103.014 223.477 102.488C223.485 101.962 223.582 101.486 223.768 101.059C223.957 100.628 224.228 100.257 224.581 99.9466C224.938 99.6347 225.372 99.3991 225.882 99.2397C226.546 99.0326 227.146 98.9806 227.681 99.0836C228.216 99.1829 228.676 99.4056 229.062 99.7516C229.448 100.098 229.753 100.538 229.978 101.074L228.44 101.554C228.303 101.22 228.137 100.952 227.944 100.751C227.754 100.548 227.522 100.422 227.249 100.373C226.978 100.318 226.65 100.35 226.266 100.47C225.968 100.563 225.723 100.701 225.53 100.884C225.341 101.066 225.207 101.292 225.128 101.562C225.047 101.829 225.021 102.139 225.05 102.495C225.078 102.846 225.16 103.238 225.294 103.671L225.492 104.303C225.621 104.717 225.77 105.077 225.94 105.384C226.109 105.692 226.3 105.937 226.513 106.12C226.726 106.303 226.962 106.42 227.223 106.469C227.484 106.519 227.77 106.495 228.079 106.399C228.456 106.281 228.743 106.126 228.941 105.933C229.142 105.74 229.268 105.508 229.319 105.238C229.374 104.968 229.364 104.656 229.291 104.302ZM237.313 95.8027L239.853 103.947L238.315 104.427L236.153 97.4963L232.707 98.5713L234.87 105.502L233.331 105.982L230.791 97.8374L237.313 95.8027ZM244.1 99.3626L242.003 100.017L241.626 98.8088L243.723 98.1544C244.066 98.0474 244.327 97.9048 244.504 97.7266C244.685 97.5435 244.794 97.3375 244.833 97.1084C244.871 96.8757 244.85 96.6306 244.77 96.3733C244.692 96.1235 244.569 95.9061 244.401 95.7213C244.232 95.5364 244.019 95.4106 243.761 95.3438C243.507 95.2759 243.208 95.2954 242.865 95.4024L241.271 95.8998L243.433 102.83L241.895 103.31L239.354 95.1659L242.486 94.1887C243.12 93.9909 243.696 93.9359 244.215 94.0238C244.736 94.1068 245.176 94.3111 245.535 94.6368C245.897 94.9576 246.157 95.3716 246.316 95.8788C246.48 96.4045 246.502 96.8948 246.382 97.3497C246.265 97.8033 246.014 98.2031 245.626 98.5489C245.243 98.8936 244.734 99.1649 244.1 99.3626ZM254.962 94.5376L255.093 94.9571C255.285 95.5724 255.376 96.1518 255.365 96.6952C255.354 97.2349 255.25 97.7234 255.055 98.1607C254.86 98.598 254.583 98.9731 254.222 99.2861C253.861 99.5992 253.425 99.8354 252.915 99.9947C252.411 100.152 251.92 100.205 251.442 100.153C250.967 100.101 250.524 99.951 250.111 99.7033C249.698 99.4556 249.331 99.1137 249.011 98.6776C248.69 98.2377 248.433 97.7101 248.241 97.0948L248.11 96.6753C247.917 96.0563 247.828 95.4764 247.844 94.9355C247.859 94.3947 247.964 93.9056 248.159 93.4683C248.353 93.0273 248.631 92.6502 248.991 92.3372C249.356 92.023 249.789 91.7874 250.293 91.6304C250.804 91.471 251.296 91.4175 251.771 91.4699C252.246 91.5224 252.688 91.6749 253.098 91.9274C253.511 92.1751 253.876 92.5176 254.192 92.9549C254.513 93.391 254.769 93.9186 254.962 94.5376ZM253.538 95.4423L253.404 95.0116C253.265 94.5678 253.103 94.1909 252.916 93.8809C252.728 93.5672 252.518 93.3197 252.286 93.1385C252.053 92.9574 251.801 92.8456 251.53 92.8033C251.258 92.7573 250.975 92.7802 250.68 92.8721C250.382 92.9652 250.136 93.1075 249.942 93.2989C249.75 93.4855 249.611 93.7194 249.522 94.0006C249.434 94.2818 249.4 94.6055 249.42 94.9716C249.443 95.3328 249.523 95.7353 249.662 96.179L249.796 96.6097C249.933 97.0497 250.096 97.4266 250.284 97.7403C250.476 98.0529 250.688 98.3017 250.922 98.4866C251.158 98.6666 251.41 98.7802 251.679 98.8274C251.947 98.8746 252.231 98.8517 252.529 98.7586C252.827 98.6655 253.073 98.5233 253.267 98.3318C253.461 98.1403 253.601 97.9046 253.685 97.6245C253.772 97.3396 253.804 97.0146 253.78 96.6497C253.756 96.2848 253.676 95.8823 253.538 95.4423ZM263.941 95.1062L264.318 96.3144L258.383 98.1659L258.006 96.9577L263.941 95.1062ZM258.426 96.8268L259.426 100.032L257.966 100.487L256.893 97.305L258.426 96.8268ZM265.088 94.7485L265.972 97.9958L264.546 98.4408L263.544 95.2301L265.088 94.7485ZM260.821 88.4687L261.199 89.6825L257.362 90.8796L256.984 89.6658L260.821 88.4687ZM261.956 88.1144L264.497 96.2586L262.964 96.7367L260.424 88.5926L261.956 88.1144ZM256.737 89.7426L258.276 89.2627L259.102 92.6386C259.238 93.1811 259.331 93.674 259.379 94.1173C259.431 94.5594 259.45 94.9606 259.435 95.3211C259.421 95.6816 259.381 96.007 259.316 96.2973C259.254 96.5828 259.172 96.8394 259.072 97.0673C258.975 97.294 258.864 97.4981 258.741 97.6799C258.62 97.8567 258.497 98.0198 258.372 98.1694L257.516 98.4364L257.139 97.2282L257.508 97.113C257.588 96.986 257.661 96.82 257.728 96.615C257.798 96.4088 257.846 96.1503 257.872 95.8395C257.902 95.5274 257.894 95.1474 257.848 94.6992C257.802 94.2511 257.706 93.7248 257.558 93.1202L256.737 89.7426ZM268.058 87.5673L267.892 95.1995L266.264 95.7073L266.766 86.6139L267.806 86.2893L268.058 87.5673ZM272.154 93.8697L267.666 87.6895L267.141 86.4969L268.187 86.1706L273.787 93.3602L272.154 93.8697ZM271.104 90.8768L271.482 92.0906L267.114 93.4535L266.735 92.2397L271.104 90.8768ZM276.545 88.725L272.012 84.9771L273.909 84.3856L276.863 87.1466L278.3 86.6981L278.514 88.1107L276.545 88.725ZM277.221 88.2747L276.332 92.5663L274.413 93.1649L275.724 87.6861L277.221 88.2747ZM278.21 83.0436L280.751 91.1878L279.218 91.6659L276.677 83.5218L278.21 83.0436ZM282.813 81.6075L281.249 87.2574L279.297 87.8664L278.67 86.583L280.09 86.1397L280.912 82.2008L282.813 81.6075ZM283.575 90.3065L280.443 87.2696L281.345 85.9323L285.494 89.708L283.575 90.3065ZM287.836 81.3971L287.669 89.0293L286.042 89.5371L286.544 80.4437L287.584 80.1191L287.836 81.3971ZM291.932 87.6996L287.444 81.5193L286.919 80.3268L287.965 80.0004L293.565 87.19L291.932 87.6996ZM290.881 84.7066L291.26 85.9204L286.891 87.2833L286.513 86.0695L290.881 84.7066Z" fill="white"/>
</svg>
